<svg width="420" height="420" viewBox="0 0 420 420" fill="none" xmlns="http://www.w3.org/2000/svg">
<path d="M323.4 273.479C407.543 231.588 285.902 198.719 267.431 173.401C254.184 155.224 274.991 112.846 252.437 91.3584C228.698 68.7792 181.742 72.0384 153.502 87.2676C110.83 110.3 80.6148 204.028 127.949 233.822C163.842 256.46 209.429 216.796 248.22 234.242C272.563 245.221 277.544 296.285 323.4 273.479Z" fill="#D1D1E3"/>
<path opacity="0.9" d="M323.4 273.479C407.543 231.588 285.902 198.719 267.431 173.401C254.184 155.224 274.991 112.846 252.437 91.3584C228.698 68.7792 181.742 72.0384 153.502 87.2676C110.83 110.3 80.6148 204.028 127.949 233.822C163.842 256.46 209.429 216.796 248.22 234.242C272.563 245.221 277.544 296.285 323.4 273.479Z" fill="white"/>
<path d="M210 359.15C299.949 359.15 372.868 354.893 372.868 349.642C372.868 344.39 299.949 340.133 210 340.133C120.051 340.133 47.1324 344.39 47.1324 349.642C47.1324 354.893 120.051 359.15 210 359.15Z" fill="#F5F5F5"/>
<path d="M269.724 338.26L263.357 336.513L265.726 321.292L272.093 323.047L269.724 338.26Z" fill="#FFC3BD"/>
<path d="M316.722 342.493H310.111L308.465 327.197H315.076L316.722 342.493Z" fill="#FFC3BD"/>
<path d="M309.574 341.729H317.621C317.752 341.729 317.879 341.775 317.982 341.857C318.084 341.939 318.155 342.054 318.184 342.182L319.494 348.062C319.524 348.206 319.522 348.355 319.487 348.497C319.452 348.64 319.385 348.773 319.291 348.886C319.197 348.999 319.079 349.089 318.946 349.15C318.812 349.211 318.666 349.242 318.52 349.238C315.932 349.196 314.042 349.037 310.775 349.037C308.767 349.037 302.719 349.247 299.947 349.247C297.175 349.247 296.806 346.508 297.94 346.256C303.03 345.148 306.869 343.61 308.498 342.149C308.792 341.88 309.175 341.73 309.574 341.729Z" fill="#263238"/>
<path d="M263.6 335.782L270.556 337.697C270.682 337.733 270.792 337.811 270.868 337.917C270.945 338.024 270.983 338.154 270.976 338.285L270.673 344.291C270.668 344.436 270.629 344.579 270.56 344.707C270.491 344.835 270.394 344.946 270.275 345.031C270.157 345.117 270.021 345.173 269.877 345.198C269.734 345.222 269.587 345.214 269.447 345.173C266.927 344.434 263.365 343.291 260.207 342.426C256.519 341.41 253.277 340.746 248.959 339.537C246.347 338.814 246.347 335.975 247.506 336.034C252.79 336.319 256.889 337.327 261.92 335.857C262.462 335.676 263.044 335.65 263.6 335.782Z" fill="#263238"/>
<path opacity="0.2" d="M265.726 321.3L264.499 329.137L270.875 330.893L272.093 323.056L265.726 321.3Z" fill="black"/>
<path opacity="0.2" d="M315.076 327.205H308.465L309.322 335.093H315.924L315.076 327.205Z" fill="black"/>
<path d="M237.77 133.19L237.199 126.857L231 129.872C231 129.872 232.63 135.492 235.704 134.912L237.77 133.19Z" fill="#FFC3BD"/>
<path d="M235.805 123.875L228.816 125.32L231.017 129.872L237.199 126.857L235.805 123.875Z" fill="#FFC3BD"/>
<path d="M278.452 134.148C275.151 135.456 271.969 137.047 268.943 138.902C268.296 139.222 267.649 139.541 266.994 139.843C265.398 140.566 263.777 141.229 262.147 141.8C259.101 142.958 255.886 143.613 252.63 143.741C252.277 143.741 251.916 143.741 251.58 143.699H251.336H251.227C251.139 143.688 251.052 143.671 250.967 143.648C250.41 143.541 249.871 143.361 249.362 143.111C247.946 142.376 246.633 141.458 245.456 140.381C242.791 137.969 240.366 135.305 238.216 132.426L233.906 134.887C235.59 138.573 237.66 142.07 240.08 145.32C241.412 147.112 242.964 148.729 244.7 150.133C245.746 150.98 246.916 151.66 248.17 152.149C248.533 152.281 248.903 152.393 249.278 152.485L249.875 152.62L250.337 152.695C250.933 152.804 251.53 152.872 252.118 152.93C256.478 153.189 260.851 152.712 265.054 151.519C266.801 151.066 268.498 150.536 270.169 149.957C271.967 149.579 286.751 146.303 289.279 141.002C292.547 134.14 286.314 131.342 278.452 134.148Z" fill="#263238"/>
<path opacity="0.2" d="M275.654 148.537C277.732 147.943 279.773 147.231 281.77 146.404L282.274 140.994C282.274 140.994 278.326 142.607 275.654 148.537Z" fill="black"/>
<path d="M317.52 135.106C317.713 135.155 317.894 135.243 318.052 135.363C318.211 135.483 318.345 135.633 318.446 135.805C318.546 135.976 318.612 136.166 318.639 136.363C318.666 136.561 318.654 136.761 318.604 136.954C316.876 143.616 315.605 150.388 314.798 157.223C314.177 162.338 313.799 167.219 313.572 171.654C313.018 182.036 313.244 189.949 312.942 192.654C307.776 192.301 288.313 190.974 277.662 190.201C272.866 152.628 282.03 133.274 282.03 133.274C284.806 132.753 287.611 132.402 290.43 132.224C291.026 132.224 291.631 132.166 292.253 132.157C297.264 132.216 302.267 132.564 307.238 133.199C308.179 133.308 309.128 133.451 310.061 133.602C313.102 134.064 315.84 134.702 317.52 135.106Z" fill="#263238"/>
<path opacity="0.2" d="M312.757 141.96C312.061 146.407 312.877 150.96 315.076 154.888C315.496 151.771 316.016 148.588 316.655 145.37L312.757 141.96Z" fill="black"/>
<path d="M306.97 116.197C305.684 120.96 304.45 129.452 306.902 133.258C304.256 135.626 301.106 135.03 298.41 134.61C295.126 134.098 294.689 133.35 295.73 131.813C296.377 131.107 296.495 130.385 297.108 128.738C297.604 127.003 297.644 125.169 297.226 123.413L306.97 116.197Z" fill="#FFC3BD"/>
<path d="M295.512 129.78C295.94 131.939 293.269 133.09 294.05 134.03C294.832 134.971 301.795 137.34 304.861 136.223C307.927 135.106 307.6 134.828 307.381 132.124C307.163 129.419 308.893 127.655 306.659 128.377C305.516 128.747 299.586 127.772 297.881 127.772C296.176 127.772 295.168 128.05 295.512 129.78Z" fill="#263238"/>
<path opacity="0.2" d="M302.996 119.146L297.226 123.404C297.4 124.293 297.492 125.195 297.503 126.101C299.578 125.95 302.543 123.892 302.929 121.758C303.108 120.898 303.131 120.013 302.996 119.146Z" fill="black"/>
<path d="M294.21 100.33C292.74 101.01 290.363 104.185 292.32 106.285C294.277 108.385 296.285 99.3804 294.21 100.33Z" fill="#263238"/>
<path d="M308.902 109.267C307.818 115.735 307.507 119.574 303.862 122.573C298.393 127.075 290.674 123.245 289.8 116.584C289.019 110.594 290.926 101.027 297.57 99.1116C299.033 98.6789 300.582 98.6277 302.07 98.9628C303.557 99.2979 304.935 100.008 306.071 101.026C307.207 102.044 308.063 103.336 308.559 104.778C309.054 106.221 309.172 107.766 308.902 109.267Z" fill="#FFC3BD"/>
<path d="M306.97 113.904C304.55 112.367 304.45 110.586 305.18 108.99C307.507 103.597 306.86 100.867 302.728 101.363C298.595 101.858 292.706 102.337 293.437 100.447C294.168 98.5573 299.359 97.7593 303.769 98.2801C308.179 98.8009 312.908 102.228 311.968 107.621C311.06 112.778 309.96 114.24 306.97 113.904Z" fill="#263238"/>
<path d="M311.22 115.374C310.395 116.802 309.039 117.846 307.448 118.28C305.332 118.835 304.315 116.936 304.928 114.92C305.483 113.148 307.255 110.72 309.364 111.031C311.472 111.342 312.211 113.61 311.22 115.374Z" fill="#FFC3BD"/>
<path d="M262.525 327.012L273.302 329.977C273.302 329.977 281.795 287.414 282.324 266.843C282.484 260.585 285.188 253.184 287.255 243.894C289.876 232.193 293.135 219.534 295.84 209.622C298.679 199.181 300.838 191.797 300.838 191.797L277.67 190.176C277.67 190.176 265.709 245.12 264.272 265.23C262.769 286.138 262.525 327.012 262.525 327.012Z" fill="#D1D1E3"/>
<path opacity="0.4" d="M262.525 327.012L273.302 329.977C273.302 329.977 281.795 287.414 282.324 266.843C282.484 260.585 285.188 253.184 287.255 243.894C289.876 232.193 293.135 219.534 295.84 209.622C298.679 199.181 300.838 191.797 300.838 191.797L277.67 190.176C277.67 190.176 265.709 245.12 264.272 265.23C262.769 286.138 262.525 327.012 262.525 327.012Z" fill="black"/>
<path opacity="0.2" d="M287.28 243.894C289.901 232.193 293.16 219.534 295.865 209.622L293.462 204.439C287.692 211.268 286.146 232.411 287.28 243.894Z" fill="black"/>
<path d="M290.17 191.05C290.17 191.05 291.85 243.6 294.605 262.752C297.662 283.752 306.264 333.564 306.264 333.564H318.36C318.36 333.564 317.713 286.104 313.925 265.784C309.607 242.651 312.908 192.637 312.908 192.637L290.17 191.05Z" fill="#D1D1E3"/>
<path opacity="0.4" d="M290.17 191.05C290.17 191.05 291.85 243.6 294.605 262.752C297.662 283.752 306.264 333.564 306.264 333.564H318.36C318.36 333.564 317.713 286.104 313.925 265.784C309.607 242.651 312.908 192.637 312.908 192.637L290.17 191.05Z" fill="black"/>
<path d="M304.819 333.825H319.066V329.566L303.139 329.289L304.819 333.825Z" fill="#263238"/>
<path d="M261.097 326.886L273.949 330.431L275.092 326.281L260.786 322.106L261.097 326.886Z" fill="#263238"/>
<path d="M299.687 109.628C299.636 110.158 299.309 110.561 298.964 110.527C298.62 110.494 298.376 110.032 298.435 109.502C298.494 108.973 298.813 108.57 299.166 108.604C299.519 108.637 299.746 109.099 299.687 109.628Z" fill="#263238"/>
<path d="M293.042 109.418C292.992 109.948 292.664 110.351 292.312 110.309C291.959 110.267 291.732 109.813 291.791 109.284C291.85 108.755 292.169 108.36 292.522 108.394C292.874 108.427 293.101 108.889 293.042 109.418Z" fill="#263238"/>
<path d="M299.216 113.4C298.375 113.462 297.535 113.27 296.805 112.848C296.074 112.426 295.488 111.794 295.122 111.034C294.756 110.275 294.627 109.422 294.752 108.588C294.877 107.754 295.251 106.977 295.824 106.358C296.397 105.739 297.143 105.307 297.965 105.118C298.787 104.929 299.647 104.992 300.433 105.299C301.218 105.606 301.894 106.142 302.37 106.838C302.847 107.533 303.103 108.357 303.106 109.2C303.142 110.272 302.754 111.314 302.025 112.101C301.297 112.887 300.287 113.354 299.216 113.4ZM299.216 105.378C298.45 105.307 297.681 105.469 297.009 105.843C296.336 106.218 295.793 106.786 295.45 107.475C295.107 108.164 294.98 108.94 295.087 109.702C295.193 110.464 295.527 111.176 296.045 111.744C296.563 112.313 297.242 112.711 297.99 112.888C298.739 113.064 299.524 113.009 300.241 112.731C300.959 112.453 301.575 111.965 302.01 111.33C302.445 110.696 302.677 109.944 302.677 109.175C302.714 108.217 302.371 107.284 301.723 106.577C301.075 105.871 300.174 105.449 299.216 105.403V105.378Z" fill="white"/>
<path d="M290.64 113.4C289.799 113.462 288.958 113.27 288.228 112.848C287.498 112.426 286.911 111.794 286.545 111.034C286.179 110.275 286.051 109.422 286.176 108.588C286.301 107.754 286.674 106.977 287.248 106.358C287.821 105.739 288.567 105.307 289.389 105.118C290.211 104.929 291.071 104.992 291.856 105.299C292.642 105.606 293.317 106.142 293.794 106.838C294.271 107.533 294.527 108.357 294.529 109.2C294.566 110.272 294.177 111.314 293.449 112.101C292.721 112.887 291.711 113.354 290.64 113.4ZM290.64 105.378C289.875 105.304 289.105 105.462 288.431 105.833C287.758 106.204 287.212 106.77 286.866 107.456C286.519 108.143 286.389 108.918 286.491 109.68C286.593 110.442 286.923 111.155 287.437 111.727C287.952 112.298 288.628 112.7 289.375 112.881C290.122 113.061 290.907 113.012 291.626 112.738C292.344 112.465 292.964 111.981 293.402 111.35C293.841 110.718 294.079 109.969 294.084 109.2C294.127 108.241 293.79 107.303 293.145 106.592C292.499 105.881 291.599 105.453 290.64 105.403V105.378Z" fill="white"/>
<path d="M294.605 109.763C293.943 111.378 293.065 112.896 291.992 114.274C292.349 114.538 292.76 114.722 293.195 114.812C293.63 114.902 294.08 114.896 294.512 114.794L294.605 109.763Z" fill="#ED847E"/>
<path d="M301.266 108.007C301.21 108.019 301.153 108.016 301.099 107.996C301.046 107.977 300.999 107.943 300.964 107.898C300.727 107.583 300.42 107.327 300.067 107.152C299.714 106.977 299.325 106.887 298.931 106.89C298.89 106.893 298.849 106.889 298.81 106.876C298.771 106.864 298.735 106.843 298.704 106.817C298.672 106.79 298.647 106.758 298.628 106.722C298.609 106.685 298.598 106.645 298.595 106.604C298.591 106.564 298.596 106.523 298.609 106.484C298.621 106.445 298.641 106.409 298.668 106.377C298.695 106.346 298.727 106.32 298.763 106.302C298.8 106.283 298.84 106.272 298.88 106.268C299.376 106.254 299.868 106.359 300.316 106.574C300.763 106.789 301.152 107.107 301.451 107.503C301.503 107.569 301.526 107.653 301.517 107.736C301.507 107.82 301.466 107.896 301.4 107.948C301.36 107.976 301.314 107.996 301.266 108.007Z" fill="#263238"/>
<path d="M296.436 117.6C297.206 117.611 297.968 117.438 298.658 117.094C299.348 116.751 299.945 116.247 300.401 115.626C300.425 115.588 300.434 115.542 300.424 115.498C300.415 115.454 300.388 115.415 300.35 115.391C300.332 115.379 300.311 115.37 300.289 115.366C300.267 115.362 300.244 115.363 300.222 115.367C300.178 115.377 300.14 115.403 300.115 115.441C299.687 116.011 299.131 116.473 298.492 116.79C297.853 117.107 297.149 117.269 296.436 117.264C296.414 117.264 296.392 117.268 296.372 117.277C296.351 117.285 296.333 117.298 296.317 117.313C296.302 117.329 296.289 117.347 296.281 117.368C296.272 117.388 296.268 117.41 296.268 117.432C296.268 117.454 296.272 117.476 296.281 117.496C296.289 117.517 296.302 117.535 296.317 117.551C296.333 117.566 296.351 117.579 296.372 117.587C296.392 117.596 296.414 117.6 296.436 117.6Z" fill="#263238"/>
<path d="M289.38 108.032C289.312 108.033 289.246 108.015 289.187 107.982C289.118 107.937 289.07 107.868 289.051 107.788C289.032 107.708 289.045 107.624 289.086 107.554C289.339 107.124 289.692 106.762 290.114 106.497C290.537 106.232 291.017 106.073 291.514 106.033C291.597 106.033 291.677 106.066 291.736 106.124C291.796 106.182 291.831 106.261 291.833 106.344C291.831 106.427 291.798 106.505 291.74 106.565C291.682 106.624 291.604 106.659 291.522 106.663C291.131 106.699 290.754 106.828 290.424 107.04C290.093 107.252 289.819 107.541 289.624 107.881C289.597 107.923 289.561 107.959 289.519 107.985C289.477 108.011 289.429 108.027 289.38 108.032Z" fill="#263238"/>
<path d="M307.39 342.888C306.938 342.922 306.489 342.804 306.113 342.552C305.994 342.45 305.902 342.319 305.846 342.173C305.791 342.026 305.773 341.868 305.794 341.712C305.792 341.622 305.815 341.533 305.861 341.456C305.907 341.379 305.974 341.316 306.054 341.275C306.793 340.897 308.918 342.208 309.162 342.359C309.187 342.375 309.206 342.398 309.218 342.424C309.23 342.451 309.234 342.481 309.229 342.51C309.226 342.542 309.213 342.572 309.192 342.596C309.171 342.621 309.143 342.637 309.112 342.644C308.548 342.789 307.971 342.871 307.39 342.888ZM306.407 341.519C306.337 341.513 306.267 341.528 306.205 341.561C306.155 341.561 306.113 341.62 306.104 341.746C306.09 341.849 306.101 341.955 306.138 342.054C306.175 342.152 306.235 342.239 306.314 342.308C307.052 342.645 307.89 342.687 308.658 342.426C307.973 341.982 307.208 341.674 306.407 341.519Z" fill="#D1D1E3"/>
<path d="M309.12 342.653H309.044C308.364 342.283 307.037 340.83 307.18 340.133C307.203 340.018 307.264 339.914 307.355 339.839C307.445 339.765 307.558 339.723 307.675 339.721C307.795 339.704 307.917 339.714 308.033 339.749C308.149 339.783 308.256 339.843 308.347 339.923C309.112 340.544 309.271 342.443 309.271 342.535C309.275 342.563 309.271 342.591 309.259 342.617C309.247 342.642 309.228 342.664 309.204 342.678C309.174 342.678 309.145 342.669 309.12 342.653ZM307.784 339.973H307.717C307.516 339.973 307.49 340.091 307.49 340.133C307.406 340.561 308.246 341.662 308.927 342.174C308.883 341.422 308.61 340.701 308.146 340.108C308.034 340.012 307.889 339.964 307.742 339.973H307.784Z" fill="#D1D1E3"/>
<path d="M262.744 336.487C261.66 336.412 259.77 336.16 259.241 335.345C259.155 335.224 259.103 335.083 259.09 334.935C259.077 334.788 259.103 334.639 259.165 334.505C259.189 334.423 259.235 334.349 259.297 334.29C259.359 334.231 259.435 334.189 259.518 334.169C260.408 333.967 262.618 335.958 262.878 336.185C262.902 336.204 262.919 336.23 262.928 336.259C262.937 336.288 262.937 336.319 262.928 336.348C262.919 336.377 262.901 336.403 262.877 336.421C262.853 336.44 262.824 336.452 262.794 336.454L262.744 336.487ZM259.602 334.505H259.56C259.526 334.514 259.496 334.532 259.472 334.557C259.449 334.582 259.432 334.614 259.426 334.648C259.389 334.733 259.373 334.825 259.38 334.918C259.388 335.01 259.418 335.099 259.468 335.177C259.77 335.63 260.795 336.017 262.265 336.134C261.383 335.37 260.123 334.446 259.602 334.505Z" fill="#D1D1E3"/>
<path d="M262.744 336.487C262.725 336.495 262.705 336.499 262.685 336.499C262.665 336.499 262.645 336.495 262.626 336.487C261.954 335.933 260.803 334.135 261.122 333.447C261.198 333.287 261.374 333.111 261.803 333.178C261.957 333.205 262.104 333.263 262.235 333.348C262.367 333.433 262.48 333.544 262.567 333.673C263.189 334.555 262.886 336.319 262.878 336.395C262.874 336.422 262.863 336.448 262.845 336.469C262.827 336.489 262.804 336.505 262.777 336.513L262.744 336.487ZM261.568 333.447C261.442 333.447 261.416 333.522 261.408 333.547C261.215 333.959 261.954 335.32 262.609 336.009C262.738 335.264 262.632 334.498 262.307 333.816C262.243 333.721 262.16 333.639 262.063 333.577C261.966 333.515 261.858 333.473 261.744 333.455C261.684 333.455 261.625 333.464 261.568 333.48V333.447Z" fill="#D1D1E3"/>
<path d="M315.664 187.421L308.944 188.093L312.95 194.452C312.95 194.452 318.394 192.31 317.579 189.303L315.664 187.421Z" fill="#FFC3BD"/>
<path d="M304.525 191.436L308.658 197.064L312.984 194.452L308.977 188.093L304.525 191.436Z" fill="#FFC3BD"/>
<path d="M331.38 158.558C330.775 156.878 330.086 155.198 329.356 153.611C328.81 151.855 324.19 137.441 318.671 135.408C311.556 132.787 309.347 139.255 312.866 146.824C314.471 149.991 316.349 153.012 318.478 155.854C318.856 156.467 319.234 157.08 319.586 157.702C320.426 159.23 321.266 160.784 321.989 162.355C323.423 165.279 324.374 168.417 324.803 171.646C324.803 172.007 324.853 172.36 324.853 172.704V172.948C324.849 172.984 324.849 173.021 324.853 173.057C324.86 173.144 324.86 173.231 324.853 173.317C324.803 173.892 324.672 174.458 324.467 174.997C323.865 176.474 323.075 177.866 322.115 179.138C319.958 182.018 317.524 184.679 314.849 187.085L317.705 191.15C321.22 189.133 324.512 186.748 327.524 184.036C329.187 182.544 330.657 180.851 331.901 178.996C332.645 177.874 333.212 176.645 333.581 175.35C333.683 174.977 333.761 174.599 333.816 174.216L333.892 173.611V173.141C333.942 172.536 333.95 171.94 333.959 171.352C333.824 166.973 332.952 162.648 331.38 158.558Z" fill="#263238"/>
<path d="M72.2988 211.319H211.814C213.614 211.301 215.339 210.595 216.634 209.345C217.929 208.095 218.696 206.397 218.778 204.599L221.903 115.626C221.937 114.754 221.794 113.885 221.483 113.069C221.172 112.254 220.7 111.51 220.094 110.883C219.488 110.255 218.762 109.756 217.958 109.416C217.154 109.077 216.29 108.903 215.418 108.906H75.894C74.0936 108.921 72.3677 109.627 71.0721 110.877C69.7765 112.128 69.0099 113.827 68.9304 115.626L65.8056 204.59C65.7716 205.463 65.9145 206.334 66.2258 207.15C66.5371 207.966 67.0103 208.711 67.6169 209.34C68.2235 209.968 68.951 210.468 69.7556 210.808C70.5602 211.148 71.4253 211.322 72.2988 211.319Z" fill="#D1D1E3"/>
<path opacity="0.4" d="M72.2988 211.319H211.814C213.614 211.301 215.339 210.595 216.634 209.345C217.929 208.095 218.696 206.397 218.778 204.599L221.903 115.626C221.937 114.754 221.794 113.885 221.483 113.069C221.172 112.254 220.7 111.51 220.094 110.883C219.488 110.255 218.762 109.756 217.958 109.416C217.154 109.077 216.29 108.903 215.418 108.906H75.894C74.0936 108.921 72.3677 109.627 71.0721 110.877C69.7765 112.128 69.0099 113.827 68.9304 115.626L65.8056 204.59C65.7716 205.463 65.9145 206.334 66.2258 207.15C66.5371 207.966 67.0103 208.711 67.6169 209.34C68.2235 209.968 68.951 210.468 69.7556 210.808C70.5602 211.148 71.4253 211.322 72.2988 211.319Z" fill="black"/>
<path d="M73.626 211.319H213.15C214.949 211.299 216.673 210.592 217.968 209.343C219.262 208.093 220.03 206.396 220.114 204.599L223.238 115.626C223.272 114.753 223.129 113.883 222.818 113.067C222.507 112.252 222.033 111.507 221.427 110.879C220.82 110.252 220.092 109.753 219.288 109.414C218.483 109.075 217.618 108.902 216.745 108.906H77.2212C75.4222 108.924 73.6985 109.63 72.4046 110.88C71.1108 112.13 70.3454 113.829 70.266 115.626L67.1412 204.59C67.106 205.463 67.2479 206.333 67.5582 207.15C67.8686 207.966 68.3409 208.711 68.9469 209.339C69.5528 209.968 70.2798 210.467 71.0839 210.808C71.8881 211.148 72.7528 211.322 73.626 211.319Z" fill="#D1D1E3"/>
<path opacity="0.9" d="M211.814 205.716C212.525 205.708 213.205 205.429 213.716 204.935C214.227 204.441 214.529 203.771 214.561 203.062L217.56 117.146C217.578 116.804 217.527 116.462 217.408 116.141C217.29 115.819 217.107 115.525 216.871 115.277C216.635 115.028 216.351 114.831 216.036 114.696C215.722 114.561 215.383 114.491 215.04 114.492H78.5568C77.8471 114.502 77.168 114.782 76.6576 115.275C76.1472 115.768 75.8441 116.437 75.81 117.146L72.7944 203.062C72.7761 203.404 72.8278 203.746 72.9462 204.067C73.0646 204.389 73.2474 204.683 73.4832 204.931C73.7191 205.179 74.0031 205.377 74.3179 205.512C74.6328 205.647 74.9718 205.716 75.3144 205.716H211.814Z" fill="white"/>
<path opacity="0.3" d="M170.638 182.465C175.05 176.907 177.621 170.113 177.996 163.027C178.36 156.142 176.447 149.329 172.553 143.64V143.539C172.487 143.442 172.414 143.349 172.334 143.262C169.445 139.191 165.615 135.877 161.171 133.603C156.727 131.329 151.799 130.162 146.807 130.2C141.646 130.239 136.559 131.432 131.918 133.69C127.278 135.949 123.201 139.216 119.986 143.254C119.918 143.329 119.851 143.396 119.792 143.472C119.78 143.501 119.766 143.529 119.75 143.556C115.333 149.115 112.758 155.912 112.384 163.002C112.005 169.911 113.921 176.751 117.835 182.456C117.832 182.482 117.832 182.507 117.835 182.532L117.911 182.624C120.796 186.733 124.636 190.079 129.1 192.377C133.564 194.674 138.519 195.853 143.539 195.812C148.692 195.772 153.77 194.582 158.404 192.33C163.039 190.077 167.112 186.819 170.327 182.792C170.404 182.709 170.477 182.623 170.545 182.532C170.577 182.512 170.608 182.489 170.638 182.465ZM143.758 191.932C139.062 191.932 135.106 186.446 133.098 178.357C136.845 177.606 140.658 177.232 144.48 177.24C148.266 177.231 152.043 177.609 155.753 178.366C152.947 186.48 148.453 191.932 143.766 191.932H143.758ZM144.673 173.326C140.526 173.317 136.389 173.728 132.325 174.552C131.827 171.388 131.607 168.187 131.67 164.984H158.508C158.245 168.213 157.711 171.413 156.912 174.552C152.888 173.725 148.79 173.314 144.682 173.326H144.673ZM116.256 164.984H127.764C127.682 168.501 127.918 172.018 128.47 175.493C125.605 176.299 122.841 177.426 120.229 178.853C117.695 174.666 116.326 169.878 116.264 164.984H116.256ZM121.8 147.21C124.291 148.647 126.949 149.775 129.713 150.57C128.827 154.018 128.245 157.537 127.974 161.087H116.466C117.055 156.088 118.889 151.316 121.8 147.21ZM146.622 134.131C151.318 134.131 155.266 139.616 157.282 147.706C153.531 148.452 149.716 148.826 145.891 148.823C142.106 148.829 138.329 148.455 134.618 147.706C137.424 139.616 141.96 134.131 146.614 134.131H146.622ZM145.706 152.729C149.853 152.737 153.99 152.326 158.054 151.502C158.549 154.669 158.768 157.873 158.71 161.078H131.88C132.138 157.847 132.672 154.643 133.476 151.502C137.497 152.33 141.593 152.741 145.698 152.729H145.706ZM174.124 161.078H162.616C162.693 157.559 162.457 154.039 161.91 150.562C164.774 149.753 167.538 148.626 170.15 147.202C172.682 151.392 174.051 156.183 174.115 161.078H174.124ZM162.422 164.984H173.93C173.334 169.978 171.497 174.742 168.588 178.844C166.096 177.409 163.439 176.281 160.675 175.484C161.564 172.043 162.146 168.529 162.414 164.984H162.422ZM167.924 144.077C165.756 145.199 163.479 146.097 161.129 146.756C160.261 142.845 158.647 139.137 156.374 135.836C160.884 137.511 164.868 140.355 167.916 144.077H167.924ZM136.693 135.853C134.122 139.121 132.148 142.818 130.864 146.773C128.598 146.116 126.41 145.218 124.337 144.094C127.727 140.39 131.964 137.562 136.685 135.853H136.693ZM122.472 181.986C124.639 180.866 126.913 179.965 129.259 179.298C130.129 183.209 131.743 186.917 134.014 190.218C129.502 188.547 125.516 185.706 122.464 181.986H122.472ZM153.72 190.201C156.297 186.937 158.271 183.239 159.55 179.281C161.816 179.94 164.004 180.841 166.076 181.969C162.685 185.673 158.445 188.498 153.72 190.201Z" fill="#D1D1E3"/>
<path opacity="0.6" d="M103.715 114.492L91.5852 205.716H107.73L119.86 114.492H103.715Z" fill="white"/>
<path opacity="0.6" d="M125.37 114.492L113.24 205.716H119.86L131.998 114.492H125.37Z" fill="white"/>
<path opacity="0.3" d="M145.849 111.846C145.843 111.98 145.865 112.114 145.913 112.24C145.961 112.366 146.034 112.481 146.127 112.577C146.221 112.674 146.333 112.751 146.457 112.802C146.581 112.854 146.714 112.88 146.849 112.879C147.125 112.877 147.391 112.769 147.589 112.576C147.788 112.384 147.905 112.122 147.916 111.846C147.921 111.712 147.9 111.577 147.852 111.452C147.804 111.326 147.731 111.211 147.638 111.115C147.544 111.018 147.432 110.941 147.308 110.89C147.184 110.838 147.05 110.812 146.916 110.813C146.639 110.815 146.374 110.923 146.176 111.116C145.977 111.308 145.86 111.57 145.849 111.846Z" fill="white"/>
<path d="M233.612 304.181H94.08C92.1655 304.089 90.3303 303.388 88.8431 302.179C87.3559 300.97 86.2946 299.316 85.8144 297.461L67.956 219.425C67.116 215.729 69.4428 212.705 73.1388 212.705H212.663C214.577 212.797 216.411 213.499 217.898 214.708C219.385 215.917 220.447 217.57 220.928 219.425L238.787 297.461C239.644 301.157 237.308 304.181 233.612 304.181Z" fill="#D1D1E3"/>
<path opacity="0.4" d="M233.612 304.181H94.08C92.1655 304.089 90.3303 303.388 88.8431 302.179C87.3559 300.97 86.2946 299.316 85.8144 297.461L67.956 219.425C67.116 215.729 69.4428 212.705 73.1388 212.705H212.663C214.577 212.797 216.411 213.499 217.898 214.708C219.385 215.917 220.447 217.57 220.928 219.425L238.787 297.461C239.644 301.157 237.308 304.181 233.612 304.181Z" fill="black"/>
<path d="M234.948 304.181H95.424C93.5091 304.091 91.6733 303.39 90.1858 302.18C88.6983 300.971 87.6374 299.317 87.1584 297.461L69.3 219.416C68.46 215.72 70.7868 212.696 74.4828 212.696H214.007C215.921 212.789 217.755 213.491 219.242 214.7C220.729 215.909 221.791 217.561 222.272 219.416L240.131 297.452C240.979 301.157 238.644 304.181 234.948 304.181Z" fill="#D1D1E3"/>
<path opacity="0.2" d="M88.0404 265.23C87.2847 265.194 86.5603 264.917 85.9736 264.439C85.387 263.962 84.969 263.308 84.7812 262.576L75.2556 220.92C75.1655 220.61 75.1499 220.283 75.2101 219.966C75.2702 219.649 75.4044 219.35 75.6017 219.095C75.799 218.84 76.0539 218.634 76.3455 218.496C76.6372 218.358 76.9573 218.29 77.28 218.299H213.755C214.511 218.333 215.236 218.61 215.823 219.088C216.41 219.566 216.827 220.22 217.014 220.954L226.548 262.576C226.643 262.89 226.662 263.222 226.603 263.545C226.544 263.868 226.408 264.171 226.208 264.431C226.007 264.691 225.747 264.899 225.45 265.038C225.153 265.177 224.826 265.243 224.498 265.23H88.0404Z" fill="black"/>
<path opacity="0.2" d="M144.27 297.973C143.829 297.952 143.406 297.791 143.064 297.513C142.721 297.235 142.475 296.855 142.363 296.428L136.811 272.16C136.756 271.977 136.745 271.784 136.78 271.596C136.815 271.409 136.894 271.232 137.01 271.081C137.127 270.93 137.278 270.809 137.451 270.728C137.623 270.647 137.813 270.608 138.004 270.614H176.996C177.441 270.631 177.868 270.79 178.214 271.069C178.561 271.347 178.808 271.73 178.92 272.16L184.481 296.428C184.536 296.61 184.546 296.804 184.511 296.991C184.477 297.179 184.398 297.356 184.281 297.507C184.165 297.658 184.014 297.779 183.841 297.86C183.668 297.941 183.479 297.98 183.288 297.973H144.27Z" fill="black"/>
<path d="M238.753 243.516L242.953 132.829C242.983 132.137 242.872 131.445 242.628 130.796C242.384 130.147 242.012 129.554 241.534 129.052C241.055 128.55 240.481 128.15 239.844 127.875C239.208 127.601 238.522 127.457 237.829 127.453L167.269 126.857C165.842 126.857 164.47 127.407 163.438 128.393C162.405 129.378 161.792 130.723 161.725 132.149L157.525 242.827C157.495 243.521 157.604 244.213 157.848 244.863C158.091 245.513 158.463 246.107 158.942 246.61C159.42 247.112 159.995 247.513 160.632 247.789C161.269 248.064 161.955 248.208 162.649 248.212L233.209 248.808C234.636 248.805 236.007 248.255 237.038 247.27C238.07 246.285 238.684 244.941 238.753 243.516Z" fill="#D1D1E3"/>
<path opacity="0.4" d="M238.753 243.516L242.953 132.829C242.983 132.137 242.872 131.445 242.628 130.796C242.384 130.147 242.012 129.554 241.534 129.052C241.055 128.55 240.481 128.15 239.844 127.875C239.208 127.601 238.522 127.457 237.829 127.453L167.269 126.857C165.842 126.857 164.47 127.407 163.438 128.393C162.405 129.378 161.792 130.723 161.725 132.149L157.525 242.827C157.495 243.521 157.604 244.213 157.848 244.863C158.091 245.513 158.463 246.107 158.942 246.61C159.42 247.112 159.995 247.513 160.632 247.789C161.269 248.064 161.955 248.208 162.649 248.212L233.209 248.808C234.636 248.805 236.007 248.255 237.038 247.27C238.07 246.285 238.684 244.941 238.753 243.516Z" fill="black"/>
<path d="M240.307 243.516L244.549 132.829C244.577 132.136 244.466 131.444 244.221 130.796C243.976 130.147 243.603 129.554 243.124 129.052C242.645 128.55 242.07 128.15 241.433 127.875C240.796 127.601 240.11 127.457 239.417 127.453L168.84 126.84C167.413 126.841 166.041 127.391 165.008 128.376C163.976 129.361 163.363 130.706 163.296 132.132L159.096 242.81C159.065 243.504 159.175 244.196 159.419 244.846C159.662 245.496 160.034 246.09 160.512 246.593C160.991 247.095 161.566 247.496 162.203 247.772C162.84 248.047 163.526 248.191 164.22 248.195L234.78 248.791C236.201 248.786 237.567 248.237 238.595 247.255C239.624 246.274 240.236 244.936 240.307 243.516Z" fill="#D1D1E3"/>
<path opacity="0.9" d="M240.055 134.005C240.067 133.732 240.023 133.459 239.926 133.203C239.829 132.947 239.682 132.714 239.493 132.516C239.304 132.318 239.077 132.161 238.826 132.053C238.575 131.945 238.304 131.889 238.031 131.888L169.898 131.309C169.335 131.31 168.795 131.528 168.388 131.918C167.982 132.307 167.74 132.838 167.714 133.4L163.565 241.651C163.554 241.925 163.597 242.198 163.694 242.454C163.79 242.71 163.937 242.945 164.126 243.143C164.315 243.341 164.542 243.5 164.793 243.608C165.045 243.717 165.315 243.774 165.589 243.776L233.722 244.348C234.284 244.348 234.825 244.132 235.231 243.744C235.638 243.356 235.88 242.826 235.906 242.264L240.055 134.005Z" fill="white"/>
<path opacity="0.3" d="M227.144 206.85C231.238 201.687 233.624 195.378 233.974 188.798C234.324 182.393 232.552 176.052 228.934 170.755V170.671C228.875 170.576 228.805 170.488 228.724 170.411C226.041 166.646 222.49 163.584 218.372 161.483C214.255 159.382 209.692 158.304 205.069 158.34C200.277 158.378 195.554 159.486 191.245 161.583C186.936 163.68 183.15 166.713 180.163 170.461C180.1 170.527 180.041 170.597 179.987 170.671L179.945 170.747C175.814 175.895 173.4 182.208 173.04 188.798C172.68 195.21 174.452 201.56 178.08 206.858C178.083 206.883 178.083 206.909 178.08 206.934L178.156 207.018C180.842 210.838 184.418 213.947 188.574 216.076C192.73 218.205 197.342 219.291 202.012 219.24C206.796 219.204 211.512 218.1 215.815 216.009C220.118 213.918 223.9 210.892 226.884 207.152C226.958 207.078 227.028 206.999 227.094 206.917L227.144 206.85ZM202.188 215.636C197.837 215.636 194.166 210.538 192.293 203.036C195.772 202.341 199.312 201.992 202.86 201.995C206.386 201.985 209.904 202.331 213.36 203.028C210.722 210.538 206.548 215.636 202.188 215.636ZM203.028 198.366C199.178 198.357 195.336 198.737 191.562 199.5C191.099 196.561 190.894 193.587 190.949 190.613H215.88C215.635 193.612 215.138 196.585 214.393 199.5C210.659 198.734 206.856 198.354 203.045 198.366H203.028ZM176.644 190.613H187.32C187.239 193.88 187.458 197.147 187.975 200.374C185.316 201.119 182.749 202.162 180.323 203.482C177.981 199.593 176.717 195.152 176.66 190.613H176.644ZM181.776 174.115C184.09 175.447 186.558 176.491 189.126 177.223C188.298 180.425 187.756 183.695 187.505 186.992H176.837C177.383 182.352 179.088 177.924 181.793 174.115H181.776ZM204.817 161.969C209.177 161.969 212.848 167.059 214.721 174.569C211.239 175.268 207.696 175.617 204.145 175.61C200.63 175.621 197.123 175.272 193.679 174.569C196.308 167.059 200.474 161.969 204.834 161.969H204.817ZM203.977 179.239C207.831 179.244 211.676 178.855 215.452 178.08C215.912 181.022 216.114 183.998 216.056 186.976H191.15C191.389 183.974 191.883 180.998 192.629 178.08C196.364 178.859 200.17 179.247 203.986 179.239H203.977ZM230.362 186.992H219.685C219.758 183.723 219.538 180.454 219.03 177.223C221.691 176.482 224.258 175.439 226.682 174.115C229.033 178.004 230.306 182.449 230.37 186.992H230.362ZM219.5 190.613H230.16C229.606 195.248 227.902 199.672 225.204 203.482C222.887 202.155 220.42 201.112 217.854 200.374C218.689 197.174 219.243 193.908 219.509 190.613H219.5ZM224.608 171.2C222.596 172.252 220.482 173.096 218.299 173.72C217.493 170.095 215.995 166.658 213.889 163.598C218.074 165.139 221.776 167.762 224.616 171.2H224.608ZM195.611 163.573C193.22 166.599 191.388 170.026 190.201 173.695C188.096 173.08 186.065 172.235 184.145 171.175C187.299 167.751 191.236 165.143 195.619 163.573H195.611ZM182.406 206.413C184.415 205.361 186.526 204.517 188.706 203.893C189.519 207.518 191.019 210.954 193.124 214.015C188.943 212.472 185.247 209.846 182.414 206.405L182.406 206.413ZM211.403 214.04C213.789 211.012 215.62 207.585 216.812 203.918C218.916 204.539 220.946 205.384 222.869 206.438C219.72 209.859 215.789 212.465 211.411 214.032L211.403 214.04Z" fill="#D1D1E3"/>
<path opacity="0.6" d="M184.624 131.435L172.519 243.835L188.647 243.97L200.752 131.569L184.624 131.435Z" fill="white"/>
<path opacity="0.6" d="M206.254 131.62L194.149 244.02L200.768 244.07L212.873 131.67L206.254 131.62Z" fill="white"/>
<path opacity="0.3" d="M202.541 129.982C202.764 129.982 202.977 129.893 203.135 129.735C203.292 129.578 203.381 129.364 203.381 129.142C203.388 129.034 203.372 128.926 203.336 128.824C203.299 128.722 203.242 128.629 203.168 128.55C203.094 128.472 203.005 128.409 202.905 128.366C202.806 128.323 202.699 128.301 202.591 128.302C202.368 128.302 202.155 128.39 201.997 128.548C201.84 128.705 201.751 128.919 201.751 129.142C201.744 129.249 201.76 129.357 201.796 129.459C201.833 129.561 201.89 129.654 201.964 129.733C202.038 129.811 202.127 129.874 202.227 129.917C202.326 129.96 202.433 129.982 202.541 129.982Z" fill="white"/>
<path d="M260.022 273.185L264.264 186.312C264.293 185.619 264.183 184.927 263.939 184.278C263.695 183.628 263.323 183.035 262.845 182.532C262.367 182.03 261.792 181.629 261.156 181.353C260.519 181.077 259.834 180.933 259.14 180.928L218.341 180.34C216.915 180.34 215.545 180.889 214.512 181.873C213.48 182.856 212.866 184.199 212.797 185.623L208.597 272.504C208.568 273.197 208.678 273.888 208.922 274.537C209.166 275.186 209.538 275.779 210.017 276.281C210.495 276.783 211.07 277.183 211.706 277.458C212.343 277.733 213.028 277.877 213.721 277.88L254.52 278.477C255.94 278.465 257.301 277.911 258.325 276.926C259.348 275.942 259.955 274.603 260.022 273.185Z" fill="#D1D1E3"/>
<path opacity="0.4" d="M260.022 273.185L264.264 186.312C264.293 185.619 264.183 184.927 263.939 184.278C263.695 183.628 263.323 183.035 262.845 182.532C262.367 182.03 261.792 181.629 261.156 181.353C260.519 181.077 259.834 180.933 259.14 180.928L218.341 180.34C216.915 180.34 215.545 180.889 214.512 181.873C213.48 182.856 212.866 184.199 212.797 185.623L208.597 272.504C208.568 273.197 208.678 273.888 208.922 274.537C209.166 275.186 209.538 275.779 210.017 276.281C210.495 276.783 211.07 277.183 211.706 277.458C212.343 277.733 213.028 277.877 213.721 277.88L254.52 278.477C255.94 278.465 257.301 277.911 258.325 276.926C259.348 275.942 259.955 274.603 260.022 273.185Z" fill="black"/>
<path d="M261.584 273.185L265.784 186.312C265.815 185.619 265.705 184.926 265.462 184.276C265.218 183.626 264.846 183.032 264.368 182.53C263.89 182.027 263.315 181.626 262.678 181.351C262.04 181.075 261.354 180.931 260.66 180.928L219.862 180.34C218.437 180.34 217.067 180.889 216.036 181.873C215.005 182.857 214.393 184.2 214.326 185.623L210.084 272.504C210.055 273.197 210.165 273.888 210.409 274.537C210.653 275.186 211.025 275.779 211.504 276.281C211.982 276.783 212.556 277.183 213.193 277.458C213.829 277.733 214.515 277.876 215.208 277.88L256.007 278.477C257.439 278.483 258.818 277.936 259.858 276.95C260.897 275.964 261.515 274.615 261.584 273.185Z" fill="#D1D1E3"/>
<path opacity="0.9" d="M261.332 187.488C261.343 187.215 261.298 186.942 261.201 186.686C261.104 186.431 260.957 186.197 260.768 185.999C260.58 185.801 260.353 185.642 260.102 185.533C259.852 185.424 259.582 185.366 259.308 185.363L220.92 184.8C220.357 184.802 219.816 185.02 219.41 185.409C219.003 185.798 218.762 186.329 218.736 186.892L214.603 271.32C214.592 271.594 214.636 271.867 214.732 272.123C214.829 272.379 214.976 272.614 215.165 272.812C215.354 273.01 215.58 273.169 215.832 273.277C216.083 273.386 216.354 273.443 216.628 273.445L254.999 274.016C255.561 274.017 256.102 273.801 256.509 273.413C256.915 273.025 257.157 272.495 257.183 271.933L261.332 187.488Z" fill="white"/>
<path opacity="0.3" d="M252.47 241.08C254.986 237.912 256.454 234.04 256.67 230C256.883 226.067 255.793 222.173 253.571 218.921C253.571 218.921 253.571 218.921 253.571 218.87C253.536 218.814 253.497 218.76 253.453 218.711C251.803 216.4 249.621 214.521 247.092 213.232C244.563 211.942 241.76 211.28 238.921 211.302C235.98 211.324 233.082 212.004 230.438 213.292C227.794 214.58 225.472 216.443 223.642 218.744L223.524 218.87V218.921C221.005 222.087 219.536 225.96 219.324 230C219.102 233.938 220.192 237.837 222.424 241.088V241.13C222.424 241.13 222.424 241.13 222.466 241.181C224.112 243.511 226.299 245.406 228.839 246.706C231.378 248.005 234.195 248.669 237.048 248.64C239.984 248.618 242.877 247.94 245.518 246.657C248.158 245.374 250.479 243.517 252.311 241.223C252.36 241.176 252.405 241.126 252.445 241.072L252.47 241.08ZM237.157 246.473C234.478 246.473 232.226 243.348 231.084 238.736C233.219 238.31 235.391 238.097 237.569 238.098C239.727 238.094 241.88 238.308 243.995 238.736C242.39 243.306 239.828 246.431 237.157 246.431V246.473ZM237.678 235.872C235.314 235.867 232.956 236.101 230.639 236.569C230.358 234.766 230.234 232.942 230.269 231.118H245.557C245.412 232.958 245.109 234.781 244.65 236.569C242.371 236.087 240.049 235.84 237.72 235.83L237.678 235.872ZM221.483 231.118H228.043C227.997 233.122 228.132 235.127 228.446 237.107C226.812 237.563 225.234 238.203 223.742 239.014C222.295 236.616 221.515 233.876 221.483 231.076V231.118ZM224.633 220.92C226.055 221.734 227.569 222.374 229.144 222.827C228.637 224.793 228.305 226.8 228.152 228.824H221.592C221.929 225.977 222.974 223.259 224.633 220.92ZM238.778 213.461C241.458 213.461 243.709 216.586 244.86 221.197C242.722 221.627 240.547 221.841 238.367 221.836C236.209 221.843 234.055 221.629 231.941 221.197C233.52 216.611 236.107 213.486 238.778 213.486V213.461ZM238.258 224.062C240.621 224.066 242.98 223.833 245.297 223.364C245.578 225.17 245.702 226.997 245.666 228.824H230.378C230.527 226.982 230.83 225.156 231.286 223.364C233.579 223.844 235.915 224.086 238.258 224.087V224.062ZM254.453 228.824H247.892C247.939 226.817 247.804 224.81 247.489 222.827C249.124 222.37 250.702 221.731 252.193 220.92C253.639 223.315 254.419 226.052 254.453 228.85V228.824ZM247.8 231.076H254.36C254.022 233.92 252.977 236.635 251.32 238.972C249.898 238.158 248.383 237.518 246.809 237.065C247.315 235.102 247.647 233.097 247.8 231.076ZM250.942 219.156C249.706 219.795 248.408 220.308 247.069 220.685C246.573 218.458 245.651 216.347 244.356 214.469C246.922 215.422 249.189 217.04 250.925 219.156H250.942ZM233.142 214.469C231.662 216.325 230.524 218.43 229.782 220.685C228.489 220.313 227.242 219.8 226.061 219.156C228.001 217.044 230.425 215.436 233.125 214.469H233.142ZM225.036 240.761C226.27 240.124 227.564 239.611 228.9 239.232C229.4 241.458 230.321 243.568 231.613 245.448C229.036 244.502 226.76 242.883 225.019 240.761H225.036ZM242.827 245.448C244.307 243.592 245.445 241.487 246.187 239.232C247.478 239.608 248.726 240.12 249.908 240.761C247.959 242.877 245.522 244.486 242.81 245.448H242.827Z" fill="#D1D1E3"/>
<path opacity="0.6" d="M228.026 184.901L218.568 273.47L231.218 273.664L240.761 185.086L228.026 184.901Z" fill="white"/>
<path opacity="0.6" d="M245.104 185.153L235.561 273.731L240.786 273.806L250.328 185.228L245.104 185.153Z" fill="white"/>
<path opacity="0.3" d="M223.751 183.59C223.974 183.59 224.187 183.502 224.345 183.344C224.502 183.187 224.591 182.973 224.591 182.75C224.591 182.536 224.51 182.33 224.363 182.174C224.216 182.017 224.015 181.923 223.801 181.91C223.578 181.91 223.365 181.999 223.207 182.156C223.05 182.314 222.961 182.528 222.961 182.75C222.961 182.965 223.042 183.171 223.189 183.327C223.336 183.483 223.537 183.578 223.751 183.59Z" fill="white"/>
</svg>
