<svg width="1434" height="917" viewBox="0 0 1434 917" fill="none" xmlns="http://www.w3.org/2000/svg">
<path d="M174.507 1.25995C174.507 1.25995 160.277 100.788 261.661 138.54C363.045 176.292 450.2 236.352 450.2 347.892C450.2 459.432 352.373 631.711 0.197327 650.248V1.25995H174.507Z" fill="#0D1621"/>
<path d="M155.119 -38.6302C155.119 -38.6302 140.89 60.8978 242.274 98.6498C343.658 136.402 430.813 196.462 430.813 308.002C430.813 416.496 338.254 582.459 9.09064 608.499" stroke="#695EFF" stroke-width="2" stroke-miterlimit="10"/>
<path d="M522.407 1.25998C522.407 1.25998 557.089 201.342 730.5 229.654C903.911 257.967 1002.62 275.985 1042.64 386.66C1082.66 497.337 938.593 749.311 1082.66 916.746H1433.8V1.25998H522.407Z" fill="#0D1621"/>
<path d="M574.813 -58.8927C586.599 -0.339347 626.34 123.135 754.489 156.541C924.279 200.798 1020.74 227.884 1049.55 341.757C1078.36 455.631 909.861 693.084 1036.58 873.1" stroke="#695EFF" stroke-width="2" stroke-miterlimit="10"/>
</svg>
