<svg width="22" height="22" viewBox="0 0 22 22" fill="none" xmlns="http://www.w3.org/2000/svg">
<path fill-rule="evenodd" clip-rule="evenodd" d="M4.583 10.083C4.583 7.05 7.05 4.583 10.083 4.583C13.117 4.583 15.583 7.05 15.583 10.083C15.583 13.117 13.117 15.583 10.083 15.583C8.62472 15.5817 7.22654 15.0018 6.19537 13.9706C5.16421 12.9395 4.58432 11.5413 4.583 10.083ZM18.981 17.685L15.869 14.572C16.8715 13.2904 17.4164 11.7102 17.417 10.083C17.417 6.04 14.127 2.75 10.083 2.75C6.04 2.75 2.75 6.04 2.75 10.083C2.75 14.127 6.04 17.417 10.083 17.417C11.7105 17.4167 13.2911 16.8717 14.573 15.869L17.685 18.981C17.7699 19.0664 17.8709 19.1341 17.9821 19.1804C18.0933 19.2266 18.2126 19.2504 18.333 19.2504C18.4534 19.2504 18.5727 19.2266 18.6839 19.1804C18.7951 19.1341 18.8961 19.0664 18.981 18.981C19.0661 18.8959 19.1337 18.7949 19.1798 18.6837C19.2259 18.5725 19.2496 18.4534 19.2496 18.333C19.2496 18.2126 19.2259 18.0935 19.1798 17.9823C19.1337 17.8711 19.0661 17.7701 18.981 17.685Z" fill="white"/>
</svg>
